<?xml version="1.0" standalone="no"?><!DOCTYPE svg PUBLIC "-//W3C//DTD SVG 1.1//EN" "http://www.w3.org/Graphics/SVG/1.1/DTD/svg11.dtd">
<svg t="1622705535469" class="icon" viewBox="0 0 1024 1024" version="1.1" xmlns="http://www.w3.org/2000/svg" p-id="6888" width="16" height="16"><defs><style type="text/css"></style></defs><path d="M888 127.2H136c-39.6 0-72 32.4-72 72v625.5c0 39.6 32.4 72 72 72h752c39.6 0 72-32.4 72-72V199.2c0-39.6-32.4-72-72-72z m0 697.3l-0.1 0.1H136.2l-0.1-0.1V611.7l185.6-189.8L539 691.8c12 13.6 32.2 16.2 47.2 6l160.5-108.5L888 655.8v168.7z m0-259.3l-118.1-48.7c-12.3-9.4-29.2-9.9-42-1.2L572.1 620.4 350 345.2c-6.6-7.5-16.1-11.9-26.1-12.2-10-0.3-19.7 3.7-26.7 10.8L136 508.7V199.3l0.1-0.1h751.7l0.1 0.1 0.1 365.9zM698 273c-55.7 0-101 45.3-101 101s45.3 101 101 101 101-45.3 101-101-45.3-101-101-101z m0 130c-16 0-29-13-29-29s13-29 29-29 29 13 29 29-13 29-29 29z" p-id="6889" fill="#e6e6e6"></path></svg>